<svg width="700" height="300" viewBox="0 0 700 300" xmlns="http://www.w3.org/2000/svg" preserveAspectRatio="xMidYMid meet"><svg x="55" y="33" width="237" height="235" xmlns="http://www.w3.org/2000/svg" preserveAspectRatio="none"><svg version="1.1" xmlns="http://www.w3.org/2000/svg" style="display: block;" width="237" height="235" viewBox="0.00 0.00 1896.00 1880.00" preserveAspectRatio="none"><g id="svg-group-71400edb-6ed1-427c-874f-ac5a2366ce12">
<defs>
	<linearGradient id="Gradient1" gradientUnits="userSpaceOnUse" x1="851.331" y1="135.998" x2="568.386" y2="308.899">
		<stop class="stop0" offset="0" stop-opacity="1" stop-color="rgba(248, 172, 121, 1)"/>
		<stop class="stop1" offset="1" stop-opacity="1" stop-color="rgba(250, 118, 163, 1)"/>
	</linearGradient>
	<linearGradient id="Gradient2" gradientUnits="userSpaceOnUse" x1="1647.44" y1="1506.56" x2="986.874" y2="1527.58">
		<stop class="stop0" offset="0" stop-opacity="1" stop-color="rgba(249, 177, 89, 1)"/>
		<stop class="stop1" offset="1" stop-opacity="1" stop-color="rgba(244, 138, 136, 1)"/>
	</linearGradient>
	<linearGradient id="Gradient3" gradientUnits="userSpaceOnUse" x1="930.686" y1="1483.48" x2="265.627" y2="1533.35">
		<stop class="stop0" offset="0" stop-opacity="1" stop-color="rgba(204, 125, 178, 1)"/>
		<stop class="stop1" offset="1" stop-opacity="1" stop-color="rgba(149, 113, 221, 1)"/>
	</linearGradient>
</defs>
<path transform="translate(0,0)" fill="rgba(0, 0, 0, 1)" d="M 946.015 694.092 C 954.975 693.038 970.004 695.298 974.684 702.878 C 991.677 730.692 996.985 768.554 1011.27 797.877 C 1054.26 886.107 1127.13 947.012 1219.36 978.977 C 1252.75 990.547 1310.46 997.272 1277.78 1046.7 C 1266.75 1051.57 1254.56 1054.5 1242.86 1056 C 1119.74 1071.85 1018.63 1166.25 992.51 1287.28 C 987.668 1309.72 988.699 1337.96 959.12 1343.02 C 946.963 1341.74 944.619 1339.41 933.618 1333.33 C 924.667 1319.9 920.734 1289.95 916.146 1273.44 C 885.72 1163.99 803.913 1085.68 692.796 1061.69 C 670.06 1056.78 642.132 1053.53 622.261 1040.41 C 619.175 1031.51 614.837 1022.03 618.775 1012.82 C 620.847 1007.97 625.833 1001.25 630.498 998.776 C 646.396 990.345 667.506 986.903 684.692 980.529 C 703.445 973.575 721.911 966.097 740.425 958.85 C 756.357 952.614 778.851 937.673 792.551 926.987 C 803.022 918.82 824.452 902.114 833.379 892.546 C 861.343 862.572 887.536 823.097 903.25 785.178 C 913.235 761.085 918.84 734.646 928.496 710.47 C 932.432 700.615 936.445 697.786 946.015 694.092 z M 1042.93 946.539 C 1044.47 942.559 1020.74 920.277 1016.56 917.671 L 1015.46 919.083 C 1014.24 917.745 1006.7 904.917 1004.57 901.875 C 986.288 875.866 972.229 848.191 956.049 821.107 C 952.253 828.01 947.869 835.061 944.423 842.165 C 929.466 873.099 908.6 900.401 888.766 928.251 C 877.882 941.932 864.252 950.893 850.22 960.548 C 828.527 975.475 807.575 990.781 784.372 1003.32 C 778.606 1006.44 768.126 1012.33 765.735 1018.37 C 766.55 1020.75 769.668 1021.97 772.109 1022.95 C 865.239 1060.42 906.327 1115.17 957.04 1198.07 L 957.655 1196.6 C 962.531 1185.14 969.961 1174.81 976.018 1164 C 1012 1099.79 1066.71 1053.22 1133.84 1023.57 C 1138.57 1021.48 1144.1 1021.62 1148.25 1018.66 C 1148.06 1012.35 1122.39 999.54 1116.14 995.872 C 1106.1 989.86 1096.2 983.619 1086.45 977.155 C 1075.54 969.905 1052.66 950.252 1042.93 946.539 z"/>
<path transform="translate(0,0)" fill="rgba(179, 179, 180, 1)" fill-opacity="0.972549" d="M 1015.46 919.083 L 1016.56 917.671 C 1020.74 920.277 1044.47 942.559 1042.93 946.539 C 1034.71 941.316 1021.43 926.994 1015.46 919.083 z"/>
<path transform="translate(0,0)" fill="rgba(0, 0, 0, 1)" d="M 1351.82 522.171 C 1360.18 523.253 1369.25 526.403 1373.91 533.501 C 1392.41 561.621 1388.93 602.729 1410.53 631.63 C 1432.92 661.594 1464.1 673.19 1498.82 682.862 C 1517.38 688.031 1525.76 689.355 1541.14 701.557 C 1545.28 713.81 1544.44 721.634 1542.05 734.225 C 1538.12 738.831 1534.06 742.956 1528.75 745.977 C 1519.47 751.259 1508.77 753.662 1498.61 756.741 C 1472.19 764.749 1442.57 774.611 1422.42 794.103 C 1385.29 830.001 1390.7 887.261 1371.5 906.052 C 1365.48 911.945 1360.94 911.997 1353 912.013 C 1347.37 911.796 1342.79 911.838 1337.44 909.434 C 1319.38 900.976 1313.59 862.043 1308.97 844.227 C 1290.39 772.545 1234.32 772.323 1175.14 750.573 C 1157.07 743.932 1158.6 725.048 1162.2 709.282 C 1164.3 700.092 1173.52 694.739 1181.86 691.279 C 1216.1 679.092 1254.49 673.132 1282.25 647.852 C 1306.62 627.202 1311.72 593.215 1319.5 563.924 C 1326.05 539.242 1324.99 529.083 1351.82 522.171 z M 1351.24 781.075 C 1357.85 780.138 1371.68 756.666 1377.52 750.505 C 1384.43 743.2 1413.87 726.894 1415.89 720.865 C 1414.22 715.26 1403.9 708.917 1399.09 705.511 C 1382.82 693.996 1363.41 675.048 1355.4 656.733 C 1342.73 668.053 1338.48 682.687 1326.7 694.187 C 1321.1 699.648 1311.25 704.977 1304.73 709.501 C 1299.14 713.377 1292.16 713.818 1288.75 719.598 C 1288.81 721.989 1288.42 723.161 1290.76 724.7 C 1314.77 740.518 1331.83 759.777 1351.24 781.075 z"/>
<path transform="translate(0,0)" fill="rgba(0, 0, 0, 1)" d="M 338.248 1807.73 C 278.964 1762.41 233.102 1695.27 215.234 1622.61 C 209.755 1600.46 206.504 1577.83 205.529 1555.04 C 204.373 1531.28 204.947 1503.59 204.916 1479.62 L 204.83 1349.31 L 204.654 1226.64 C 204.623 1204.95 204.434 1183.36 204.85 1161.61 C 205.24 1141.21 210.577 1137.66 228.395 1129.7 C 242.575 1123.36 257.401 1119.92 271.729 1114.11 C 328.789 1091.01 387.652 1071.97 445.396 1050.56 L 527.495 1020.54 C 537.842 1016.84 549.694 1010.94 560.605 1009.58 C 569.077 1008.52 575.684 1011.78 582.075 1017.01 C 588.813 1022.52 594.027 1029.91 594.615 1038.81 C 595.162 1047.08 591.15 1055.49 584.641 1060.53 C 569.251 1072.46 498.573 1095.54 476.669 1103.84 L 400.96 1132.33 C 385.1 1138.37 370.183 1145.44 353.713 1149.58 C 349.104 1150.73 337.622 1153.1 335.047 1156.1 C 334.934 1167.33 369.82 1175.76 380.064 1179.81 L 731.098 1315.89 L 872.966 1371 C 898.184 1380.87 923.961 1391.28 949.451 1400.43 C 956.172 1402.46 960.484 1403.68 967.285 1400.98 C 1081.57 1355.72 1196.42 1312 1310.75 1266.82 C 1321.64 1262.52 1333.49 1259.53 1344.27 1255.01 C 1387.22 1237.01 1430.67 1219.69 1474.21 1203.13 L 1536.12 1179.36 C 1550.83 1173.81 1559.48 1172.28 1574.29 1164.36 C 1560.83 1154.51 1530.36 1145.41 1513.43 1139 L 1408.33 1098.04 L 1351.42 1075.94 C 1339.35 1071.13 1326.06 1068.08 1317.31 1057.72 C 1306.28 1044.65 1314.96 1026.31 1327.31 1017.8 C 1332.68 1014.2 1337.91 1012.78 1344.22 1014.29 C 1367.62 1019.88 1389.94 1029.22 1412.48 1037.7 L 1510.03 1073.92 C 1561.13 1092.76 1612.49 1110.78 1663.27 1130.52 C 1678.24 1136.34 1692.74 1140.03 1702.06 1154.33 C 1705.82 1180.78 1703.46 1224.61 1703.43 1252.2 L 1703.43 1408.3 L 1703.67 1510.27 C 1703.71 1530.24 1704.61 1561.29 1702 1580.61 C 1692.84 1648.28 1666.25 1707.69 1623.56 1760.83 C 1608.82 1779.17 1588.93 1794.77 1574.13 1811.08 C 1573.32 1814.71 1573.14 1812.96 1575.03 1816.46 C 1580.84 1819.45 1612.96 1817 1622.22 1816.91 L 1765.99 1816.75 C 1795.21 1816.72 1856.81 1814.44 1882.04 1821.16 C 1886.97 1825.97 1892.17 1830.67 1896 1836.37 L 1896 1861.39 C 1889.3 1868.52 1883.97 1874.44 1875.88 1880 L 25.977 1880 C 24.7424 1878 17.0697 1870.61 14.57 1867.6 C 9.31786 1861.29 4.98447 1855.2 0 1848.72 L 0 1846.68 C 7.02238 1841.55 8.34099 1833.93 12.7278 1826.85 C 14.2159 1824.44 18.002 1820.5 20.0318 1818.34 C 38.1205 1814.67 94.1273 1816.66 114.981 1816.34 C 186.419 1815.26 260.177 1817.88 331.497 1816.07 C 334.189 1813.46 336.031 1810.73 338.248 1807.73 z"/>
<path transform="translate(0,0)" fill="url(#Gradient3)" d="M 265.246 1199.21 C 304.024 1216.05 349.116 1232.28 388.691 1247.55 L 686.612 1361.49 L 861.666 1430.27 C 879.156 1437.13 896.626 1443.7 913.833 1451.26 C 919.387 1453.71 925.298 1456.31 931.142 1457.84 L 931.314 1744.27 C 931.262 1768.21 931.86 1792.13 931.532 1816.06 C 931.412 1816.07 931.291 1816.07 931.17 1816.07 C 848.439 1816.53 765.403 1816.36 682.706 1816.31 L 584.829 1816.16 C 546.252 1816.06 512.083 1817.86 474.387 1808.28 C 426.339 1795.67 382.504 1770.53 347.37 1735.41 C 311.369 1700.13 285.74 1655.65 273.275 1606.81 C 267.725 1584.94 265.431 1560.75 265.295 1538.1 C 264.615 1425.19 266.413 1312.11 265.246 1199.21 z"/>
<path transform="translate(0,0)" fill="url(#Gradient2)" d="M 1640.06 1205.09 L 1640.99 1205.19 C 1642.55 1207.3 1641.9 1305.65 1641.94 1318.8 L 1642.66 1537.97 C 1642.63 1554.2 1642.34 1573.31 1639.47 1589.21 C 1629.56 1643.99 1602.66 1696.03 1563.27 1735.13 C 1526.62 1771.96 1480.47 1797.89 1429.96 1810.04 C 1397.61 1817.86 1370.53 1816.21 1337.77 1816.2 L 1259.16 1816.16 L 995.993 1815.95 C 995.181 1815.69 994.806 1815.19 994.072 1814.56 L 993.076 1589.45 C 992.981 1547.11 991.836 1500.17 992.871 1458.21 C 1208.12 1372.6 1423.85 1288.23 1640.06 1205.09 z"/>
<path transform="translate(0,0)" fill="rgba(0, 0, 0, 1)" d="M 734.222 0 L 780.495 0 C 781.273 2.12059 781.312 4.03085 783.238 4.86352 C 793.468 9.28481 805.201 11.2477 815.564 15.3895 C 870.249 37.2455 910.128 85.222 907.378 146.027 C 906.244 171.103 901.873 189.997 890.645 212.961 C 879.504 238.236 863.468 259.004 847.51 281.307 C 842.651 288.097 828.567 303.04 826.96 310.351 L 833.007 315.493 C 833.821 315.615 834.636 315.736 835.451 315.858 C 870.574 293.932 966.954 242.561 997.035 225.42 L 1097.63 168.596 C 1117.73 157.46 1137.28 143.777 1159 137.905 C 1189.41 146.422 1190.86 158.468 1204.88 184.029 C 1212.71 198.255 1220.71 212.387 1228.88 226.42 L 1285.84 324.99 C 1296.87 343.84 1309.21 362.802 1318.6 382.225 C 1325.42 396.341 1324.1 416.492 1310.37 425.751 C 1291.95 438.161 1271.76 449.527 1252.35 460.273 L 1177.71 501.895 L 968.792 618.315 C 793.86 718.374 618.133 817.038 441.63 914.298 L 306.3 990.786 C 276.886 1007.56 246.423 1024.45 216.562 1040.5 C 203.829 1047.35 196.416 1047.89 182.331 1046.27 C 164.232 1032.97 153.867 1009.18 142.614 990.14 L 89.5 899.701 L 59.5954 849.254 C 47.9533 829.919 27.9384 801.778 32.4414 778.196 C 35.7594 760.82 56.0084 752.687 69.7012 744.879 C 88.8254 733.945 108.088 723.257 127.485 712.815 L 257.892 640.279 C 282.759 626.338 313.741 609.749 337.529 594.361 C 333.858 590.673 330.102 587.438 326.198 584.019 C 316.87 584.465 307.762 586.07 298.184 586.216 C 238.901 587.122 167.48 576.539 133.078 522.155 C 121.639 504.072 113.843 486.882 110.72 465.946 C 104.227 424.291 114.658 381.769 139.69 347.848 C 155.445 326.875 177.408 309.99 201.819 299.45 C 313.977 251.024 428.171 327.656 524.077 379.583 C 532.403 384.091 554.947 399.795 563.3 398.567 C 565.753 395.042 564.167 291.2 565.124 275.949 C 571.362 176.554 593.338 56.4979 697.618 14.736 C 707.621 10.73 729.046 9.0663 734.222 0 z"/>
<path transform="translate(0,0)" fill="rgba(179, 179, 180, 1)" d="M 813.699 327.117 C 815.638 324.071 824.096 310.856 826.96 310.351 L 833.007 315.493 C 831.655 317.463 817.579 324.669 813.699 327.117 z"/>
<path transform="translate(0,0)" fill="rgba(144, 116, 221, 1)" d="M 1148.84 210.176 C 1155.74 212.139 1239.25 370.948 1254.9 389.974 C 1164.87 442.534 1071.65 491.13 980.717 542.261 C 944.829 562.44 908.829 582.843 872.396 602.011 C 868.522 601.563 867.578 597.782 865.713 594.437 C 844.645 557.061 823.086 519.962 801.042 483.152 C 791.439 466.935 774.608 440.313 766.752 424.106 C 773.495 418.525 802.144 403.608 811.75 398.519 C 835.14 386.182 858.442 373.676 881.652 361.004 C 971.089 311.393 1060.15 261.115 1148.84 210.176 z"/>
<path transform="translate(0,0)" fill="rgba(144, 116, 221, 1)" d="M 477.036 587.102 C 485.156 591.04 564.159 742.708 581.927 765.619 C 575.458 768.452 563.036 775.994 556.485 779.72 L 508.873 806.77 L 260.48 946.592 C 243.512 956.317 226.776 966.134 210.358 976.768 C 209.641 976.738 208.924 976.707 208.207 976.676 C 197.877 964.247 188.823 949.065 180.201 935.409 C 158.149 900.484 138.635 864.003 116.952 828.851 C 111.15 819.446 105.27 810.198 100.386 800.271 C 112.165 790.141 133.924 778.931 147.851 771.426 C 167.453 760.995 186.964 750.392 206.381 739.619 L 477.036 587.102 z"/>
<path transform="translate(0,0)" fill="url(#Gradient1)" d="M 750.37 65.3772 C 752.904 65.143 755.444 64.9953 757.987 64.9343 C 802.635 64.2313 845.597 96.2217 846.04 143.258 C 846.232 163.518 835.687 186.405 825.577 203.533 C 807.666 233.876 784.043 261.574 760.905 288.076 C 735.142 317.546 708.549 346.279 681.157 374.241 C 669.877 385.464 643.669 410.35 631.265 418.601 C 631.051 417.281 630.866 415.958 630.71 414.63 C 630.165 410.034 630.043 404.616 629.885 399.959 C 629.41 385.908 628.502 371.761 628.183 357.719 C 626.034 263.131 623.628 80.4873 750.37 65.3772 z"/>
<path transform="translate(0,0)" fill="rgba(240, 126, 159, 1)" d="M 266.415 345.366 C 328.767 334.786 426.964 395.439 478.666 426.654 C 496.862 437.64 525.003 454.081 539.807 468.436 C 504.993 484.96 462.183 493.862 424.529 502.166 C 364.914 516.174 253.297 543.209 200.526 503.61 C 183.991 491.197 173.241 472.57 170.767 452.043 C 167.887 429.661 176.3 402.395 190.295 384.903 C 210.127 360.116 235.809 349.263 266.415 345.366 z"/>
<path transform="translate(0,0)" fill="rgba(240, 126, 159, 1)" d="M 711.133 457.232 C 715.765 459.738 802.925 610.391 817.701 632.753 C 800.028 644.746 769.579 660.786 750.599 671.379 L 637.475 734.762 L 636.779 735.454 C 633.987 734.77 627.504 721.916 625.562 718.573 C 604.983 683.326 584.834 647.83 565.123 612.091 C 558.185 599.661 539.786 565.08 532.134 554.95 C 553.19 541.227 579.988 527.771 602.319 515.776 L 711.133 457.232 z"/>
</g></svg></svg><svg x="306" y="100" width="339" height="140" xmlns="http://www.w3.org/2000/svg" preserveAspectRatio="none"><svg version="1.1" xmlns="http://www.w3.org/2000/svg" style="display: block;" width="339" height="140" viewBox="63.82 29.32 1919.60 792.75" preserveAspectRatio="none"><g id="svg-group-781732e4-aca2-4477-9096-fcd9811936cb">
<path transform="translate(0,0)" fill="rgba(0, 0, 0, 1)" d="M 356.557 48.4368 C 421.599 42.3984 541.68 78.1166 577.704 138.931 C 588.535 160.379 579.229 187.612 557.586 196.988 C 513.191 216.407 489.985 167.515 448.513 151.936 C 325.188 105.951 189.384 168.352 172.092 305.697 C 148.336 494.393 322.986 594.442 484.023 514.04 C 492.351 509.882 506.333 502.147 507.436 493.267 C 509.141 479.539 511.132 413.958 506.613 404.819 C 498.063 397.098 400.797 405.6 381.737 400.247 C 352.388 392.004 351.548 364.576 357.74 339.867 C 360.279 335.368 363.241 331.121 366.585 327.184 C 372.539 320.31 377.978 318.106 386.806 317.861 C 398.339 317.54 410.114 317.69 421.649 317.708 L 487.296 317.827 L 535.027 317.769 C 552.111 317.733 572.931 315.443 586.548 327.426 C 594.144 334.11 598.133 345.92 598.205 355.923 C 598.445 389.419 597.954 422.909 598.188 456.406 C 597.676 476.645 600.004 496.957 599.12 517.151 C 598.569 529.742 594.241 539.098 585.403 547.899 C 533.684 599.398 457.642 625.553 385.721 628.87 C 216.155 636.69 76.0912 517.73 74.1416 344.75 C 73.5597 280.769 90.0467 217.038 128.106 164.964 C 182.581 90.4308 265.62 51.821 356.557 48.4368 z"/>
<path transform="translate(0,0)" fill="rgba(0, 0, 0, 1)" d="M 1631.07 209.441 C 1641.34 209.456 1656.01 213.995 1662.83 222.274 C 1674.55 236.5 1684.25 267.405 1690.97 282.064 C 1702.13 306.406 1771.18 483.974 1779.99 492.351 C 1783.51 491.585 1797.38 452.045 1799.73 446.208 C 1814.52 409.548 1830.87 373.483 1845.69 336.866 C 1854.35 315.439 1863.16 294.073 1872.13 272.772 C 1877.52 259.726 1885.54 238.807 1892.96 226.947 C 1896.36 221.577 1901.1 217.18 1906.7 214.184 C 1920.58 206.732 1944.11 210.661 1956.4 220.13 C 1965.2 226.914 1968.74 234.111 1973.68 243.643 C 1972.37 261.285 1958.24 290.369 1951.21 307.766 L 1886.67 463.414 C 1880.77 477.746 1864.38 514.558 1860.57 526.942 C 1855.22 536.69 1842.26 570.266 1836.83 583.184 L 1776.07 731.94 C 1768.38 750.734 1761.05 772.927 1751.32 790.437 C 1733.75 822.07 1682.06 816.568 1668.3 784.102 C 1661.86 768.911 1673.24 748.138 1679.12 733.682 C 1686.34 715.574 1693.85 697.578 1701.63 679.7 C 1712 655.498 1721.2 630.694 1731.36 606.437 C 1721.57 590.043 1713.07 564.345 1705.44 546.543 C 1694.24 520.413 1683.53 493.9 1672.66 467.649 L 1608.89 313.875 C 1602.78 299.011 1594.3 283.396 1589.14 268.611 C 1576.69 232.922 1598.55 212.542 1631.07 209.441 z"/>
<path transform="translate(0,0)" fill="rgba(0, 0, 0, 1)" d="M 1030.32 30.5947 C 1034.97 30.1626 1039.63 29.8911 1044.29 29.781 C 1074.47 29.3158 1126.53 33.4715 1125.15 74.8042 C 1122.51 153.567 1028.68 91.3057 991.313 132.223 C 968.199 157.534 975.881 178.063 975.394 208.755 C 976.583 210.392 977.793 212.012 979.024 213.617 C 983.791 216.22 1008.77 215.017 1015.94 214.344 C 1062 210.015 1094.03 222.629 1078.6 275.27 C 1076.34 282.99 1069.5 289.697 1062.83 295.18 C 1037.8 300.917 1000.6 294.27 975.568 299.247 C 974.658 305.926 975.747 321.529 975.941 328.906 C 976.232 343.444 976.334 357.985 976.249 372.525 L 976.331 570.13 C 975.983 586.748 975.999 592.77 965.913 607.875 C 950.114 631.537 892.251 624.299 886.546 596.442 C 883.538 581.754 885.251 544.639 885.256 526.452 L 885.332 377.874 C 885.363 355.782 886.561 319.225 884.806 298.059 C 865.926 295.959 844.726 301.273 828.716 287.588 C 812.968 274.126 813.949 239.616 827.366 224.713 C 839.516 211.218 860.932 215.362 877.293 214.61 C 886.13 214.203 884.973 210.963 885.802 203.116 C 886.168 193.024 884.941 181.974 885.557 171.818 C 887.241 136.266 896.464 103.687 920.665 76.6539 C 946.831 47.4267 991.642 32.9684 1030.32 30.5947 z"/>
<path transform="translate(0,0)" fill="rgba(0, 0, 0, 1)" d="M 1217.87 94.324 C 1285.48 93.0017 1263.44 164.494 1266.58 207.352 C 1267.46 219.334 1281.38 215.106 1289.92 215.694 C 1312.62 217.258 1336.38 215.353 1358.9 217.197 C 1396.45 220.273 1394.42 288.21 1360.61 295.575 C 1342.45 300.817 1275.38 293.614 1268.73 300.905 C 1267.91 308.576 1268.54 319.609 1268.6 327.634 L 1268.72 374.891 L 1268.59 459.342 C 1268.52 482.695 1264.48 504.937 1280.13 523.561 C 1305.24 553.449 1349.13 525.779 1378.21 542.161 C 1397.5 553.026 1397.66 583.482 1385.62 601.586 C 1355.52 637.34 1261.03 623.305 1227.16 598.723 C 1171.51 558.336 1177.76 501.07 1177.8 440.867 L 1177.83 345.131 C 1177.83 333.325 1178.45 309.853 1176.66 299.245 C 1153.66 299.908 1116.77 299.135 1110.99 269.598 C 1108.36 256.153 1110.57 240.569 1118.47 229.154 C 1131.58 210.23 1154.77 214.883 1174.44 214.465 C 1179.53 212.489 1177.61 193.585 1177.84 189.691 C 1179.32 164.685 1172.29 133.726 1185.81 111.505 C 1192.35 100.756 1206.58 96.6586 1217.87 94.324 z"/>
<path transform="translate(0,0)" fill="rgba(0, 0, 0, 1)" d="M 1472.79 37.2802 C 1485.47 36.0513 1499.7 36.1471 1511.52 41.4964 C 1521.98 46.2335 1527.26 53.8588 1531.12 64.2697 C 1535.29 75.4931 1533.43 156.681 1533.5 176.058 L 1533.71 424.665 L 1533.85 530.859 C 1533.9 546.498 1534.36 562.189 1534.25 577.832 C 1534.09 600.224 1525.5 612.449 1504.7 619.696 C 1484.61 622.281 1458.15 622.533 1446.78 600.823 C 1445.49 598.349 1444.5 582.584 1444.46 578.716 C 1444.16 550.824 1444.43 522.88 1444.49 494.978 L 1444.42 353.223 L 1444.34 176.294 C 1444.34 144.493 1444.27 112.684 1444.46 80.8828 C 1444.6 56.9516 1450.41 46.1484 1472.79 37.2802 z"/>
<path transform="translate(0,0)" fill="rgba(0, 0, 0, 1)" d="M 715.773 214.316 C 741.683 210.954 767.409 222.206 769.96 250.611 C 771.834 271.475 771.319 291.954 771.352 312.877 L 771.379 426.006 L 771.418 526.919 C 771.484 546.675 772.251 567.306 770.678 586.935 C 769.35 603.508 754.498 618.467 738.162 620.745 C 718.913 621.257 695.444 621.405 685.431 602.334 C 678.201 588.564 680.285 545.366 680.276 529.085 L 680.258 427.74 L 680.223 312.608 C 680.207 290.965 679.724 269.22 681.025 247.625 C 682.187 228.324 697.742 216.557 715.773 214.316 z"/>
<path transform="translate(0,0)" fill="rgba(0, 0, 0, 1)" d="M 724.585 46.5822 C 756.514 45.6858 783.175 70.7421 784.259 102.666 C 785.343 134.59 760.443 161.397 728.527 162.668 C 696.344 163.95 669.264 138.798 668.171 106.608 C 667.077 74.4178 692.389 47.4862 724.585 46.5822 z"/>
</g></svg></svg></svg>