<svg width="700" height="300" viewBox="0 0 700 300" xmlns="http://www.w3.org/2000/svg" preserveAspectRatio="xMidYMid meet"><svg x="55" y="33" width="237" height="235" xmlns="http://www.w3.org/2000/svg" preserveAspectRatio="none"><svg version="1.1" xmlns="http://www.w3.org/2000/svg" style="display: block;" width="237" height="235" viewBox="0.00 -2.00 1896.00 1880.00" preserveAspectRatio="none"><g id="svg-group-9bb6c837-6b33-42b8-ab08-53c2cf5d1c35">
<defs>
	<linearGradient id="Gradient1" gradientUnits="userSpaceOnUse" x1="856.241" y1="156.126" x2="574.589" y2="291.935">
		<stop class="stop0" offset="0" stop-opacity="1" stop-color="rgba(247, 168, 117, 1)"/>
		<stop class="stop1" offset="1" stop-opacity="1" stop-color="rgba(252, 129, 164, 1)"/>
	</linearGradient>
	<linearGradient id="Gradient2" gradientUnits="userSpaceOnUse" x1="1658.49" y1="1501.33" x2="977.332" y2="1546.9">
		<stop class="stop0" offset="0" stop-opacity="1" stop-color="rgba(248, 179, 90, 1)"/>
		<stop class="stop1" offset="1" stop-opacity="1" stop-color="rgba(244, 140, 137, 1)"/>
	</linearGradient>
	<linearGradient id="Gradient3" gradientUnits="userSpaceOnUse" x1="927.955" y1="1461.67" x2="266.663" y2="1552.38">
		<stop class="stop0" offset="0" stop-opacity="1" stop-color="rgba(203, 126, 174, 1)"/>
		<stop class="stop1" offset="1" stop-opacity="1" stop-color="rgba(148, 114, 217, 1)"/>
	</linearGradient>
</defs>
<path transform="translate(0,0)" fill="rgba(0, 0, 0, 1)" d="M 942.608 696.269 C 944.057 696.148 945.51 696.074 946.964 696.046 C 962.388 695.61 968.015 699.118 979.027 709.578 C 983.705 726.542 988.518 741.403 994.553 757.93 C 998.04 767.874 1000.29 779.835 1004.73 789.284 C 1051.21 888.238 1142.72 962.122 1248.56 988.917 C 1267.33 993.669 1284.81 1003.28 1284.33 1025.66 C 1284.21 1031.42 1276.44 1048.53 1271.1 1050.01 C 1256.69 1054.02 1237.26 1054.57 1222.15 1058.56 C 1181.23 1067.67 1143.44 1084.19 1108.29 1106.94 C 1102.41 1110.75 1096.12 1118.44 1090.54 1122.99 C 1084.31 1128.08 1078.42 1133.56 1072.08 1138.54 C 1054.12 1154.79 1017.77 1206.82 1008.51 1227.11 C 1000.9 1243.78 984.565 1310.19 983.208 1326.79 C 976.484 1332.9 971.123 1336.68 962.773 1340.16 C 961.197 1340.27 959.619 1340.33 958.04 1340.36 C 921.948 1341.04 925.026 1308.01 918.991 1283.27 C 893.147 1177.32 822.231 1097.89 716.829 1066.52 C 688.118 1057.97 640.287 1054.02 619.968 1034.26 C 619.027 1004.73 626.501 997.797 656.105 990.208 C 677.502 984.723 696.933 977.497 717.313 969 C 726.413 965.206 736.538 962.947 745.396 958.507 C 808.584 923.099 863.43 872.644 893.302 805.595 C 897.734 795.647 903.895 785.951 907.103 775.961 C 911.737 761.531 916.028 747.922 921.562 733.821 C 927.392 715.672 925.325 708.486 942.608 696.269 z"/>
<path transform="translate(0,0)" fill="rgba(246, 158, 83, 1)" d="M 955.887 820.487 C 959.468 824.705 968.659 842.479 971.82 848.089 C 981.339 865.106 990.996 882.309 1002.19 898.296 C 1031.82 940.621 1075.14 969.72 1117.86 997.36 C 1127.72 1003.74 1137.29 1010.15 1146.6 1017.31 C 1132.33 1025.32 1114.7 1031.66 1098.13 1041.34 C 1026.53 1083.17 993.565 1130.37 956.49 1201.3 C 923.504 1140.44 886 1085.4 825.27 1049.38 C 807.49 1038.84 790.347 1029.75 771.474 1021.3 C 768.219 1019.85 768.035 1019.21 767.294 1016.7 C 771.037 1010.31 795.442 997.334 803.281 992.635 C 817.08 984.368 830.528 975.525 843.586 966.131 C 856.042 957.391 867.739 947.616 878.553 936.911 C 905.981 909.352 926.731 873.954 944.958 839.835 C 948.52 833.167 951.925 826.932 955.887 820.487 z"/>
<path transform="translate(0,0)" fill="rgba(0, 0, 0, 1)" d="M 1348.31 524.322 C 1353.3 524.009 1357.08 524.349 1362.03 524.666 C 1381.92 539.442 1385.07 568.068 1390.38 590.577 C 1408.77 668.487 1468.9 673.351 1532.5 696.402 C 1540.29 699.224 1542.03 710.879 1544 717.985 C 1542.11 723.547 1535.48 742.89 1531.83 744.109 C 1475.49 762.846 1416.19 775.391 1394.23 838.812 C 1386.34 861.596 1383.73 887.345 1370.42 907.196 C 1364.95 909.237 1360.62 910.325 1354.97 911.779 C 1345.36 910.517 1328.59 906.134 1324.28 896.278 C 1314.82 874.651 1313.16 846.013 1303.87 824.204 C 1289.3 793.261 1257.12 775.266 1226.17 764.291 C 1212.67 759.504 1165.03 751.824 1161.32 736.28 C 1152.22 696.195 1188.91 689.761 1218.38 682.624 C 1245.66 676.017 1255.79 669.843 1276.57 652.761 C 1306.87 627.857 1313.6 604.025 1319.28 566.899 C 1322.61 545.054 1326.76 532.132 1348.31 524.322 z"/>
<path transform="translate(0,0)" fill="rgba(246, 158, 83, 1)" d="M 1354.09 657.733 C 1355.24 658.4 1355 658.067 1355.65 659.206 C 1370.79 685.707 1391.78 701.72 1415.12 720.829 C 1399.66 732.879 1383.96 744.791 1371.24 759.833 C 1367.28 764.51 1357.09 782.536 1352.3 783.894 C 1338.86 766.972 1304.68 732.206 1287.38 722.376 C 1298.85 712.589 1312.31 705.005 1323.7 694.45 C 1335.91 683.14 1343.63 670.524 1354.09 657.733 z"/>
<path transform="translate(0,0)" fill="rgba(0, 0, 0, 1)" d="M 21.2639 1820.65 C 36.2888 1818.73 79.6722 1819.9 97.3973 1819.92 L 201.125 1819.97 C 231.042 1819.97 260.518 1820.88 290.198 1816.43 C 301.379 1814.76 329.023 1819.66 336.261 1810.43 C 336.784 1801.97 318.812 1791.22 312.259 1785.22 C 305.348 1780.13 300.67 1771.9 294.888 1765.97 C 281.535 1752.26 271.379 1739.99 262.265 1723.09 C 258.651 1716.39 251.209 1708.95 247.073 1701.73 C 242.645 1692.76 235.025 1681.11 231.928 1671.72 C 219.533 1634.1 207.334 1594.07 207.708 1554.14 C 207.792 1545.22 204.612 1534.88 204.543 1526.14 C 203.809 1432.49 204.449 1338.82 204.225 1245.17 C 204.179 1227.32 205.095 1156.62 210.451 1142.91 C 218.727 1134.35 267.28 1117.26 280.944 1111.62 C 284.978 1109.95 298.662 1106.6 304.576 1104.41 L 479.532 1041 C 496.386 1034.97 512.197 1026.55 530.269 1021.22 C 558.379 1012.93 562.082 1003.16 587.306 1025.4 C 588.342 1030.59 589.875 1034.63 591.625 1039.58 C 587.574 1050.48 587.502 1056.9 577.082 1064.88 C 562.157 1076.32 543.807 1077.99 527.538 1084.13 L 397.506 1132.53 C 379.233 1139.36 350.138 1148.71 334.213 1157.21 C 336.434 1159.03 343.788 1166.32 345.347 1167.05 C 385.44 1185.74 433.387 1199.58 473.858 1215.52 L 826.291 1351.76 C 834.387 1354.96 842.534 1359.21 850.754 1362.55 C 883.547 1375.91 916.53 1389.04 949.414 1402.15 C 953.031 1403.6 962.042 1404.99 965.803 1404.23 C 980.337 1401.27 998.601 1391.78 1012.57 1386.1 L 1142.31 1334.84 C 1162.75 1326.67 1193.08 1313.26 1213.6 1307.72 C 1231.21 1302.96 1237.27 1298.56 1253.53 1291.92 L 1338.77 1257.92 C 1349.43 1253.75 1360.37 1250.59 1370.93 1246.47 C 1405.04 1233.18 1438.86 1218.88 1473.2 1206.22 L 1528.2 1185.36 C 1546.38 1178.53 1556.5 1176.6 1573.67 1166.15 C 1553.56 1149.03 1529.62 1143.15 1505.93 1133.79 L 1383.07 1086.38 C 1370.3 1081.46 1357.08 1077.77 1344.51 1072.34 C 1337.15 1069.17 1323.4 1063.81 1318.42 1057.33 C 1314.5 1052.24 1315.35 1038.11 1316.74 1031.99 C 1317.91 1026.81 1323.59 1023.35 1327.82 1020.67 C 1336.34 1015.25 1345.37 1014.74 1355.07 1017.08 C 1363.76 1019.18 1372.22 1023.8 1380.6 1026.96 C 1388.76 1030.03 1397.24 1032.19 1405.36 1035.33 C 1417.93 1040.2 1430.14 1045.95 1442.81 1050.6 C 1470.25 1060.69 1498.15 1069.63 1525.7 1079.47 C 1535.94 1083.13 1545.87 1087.92 1556.05 1091.47 C 1562.76 1093.8 1569.82 1095.17 1576.58 1097.39 C 1585.08 1100.17 1593.16 1104.37 1601.59 1107.42 C 1618.76 1113.61 1689.75 1136.57 1697.23 1150.36 C 1698.57 1152.83 1699.47 1155.2 1699.75 1158.01 C 1700.81 1169.04 1700.07 1180.79 1700.07 1191.88 L 1700.07 1256.88 L 1700.04 1467.4 C 1700.05 1481.03 1699.82 1495.39 1700.43 1508.89 C 1700.94 1520.33 1704.71 1535.9 1703.55 1547.2 C 1699.67 1584.83 1695.53 1626.86 1680.62 1661.89 C 1662.3 1704.93 1639.64 1740.04 1609.37 1775.42 C 1603.3 1782.5 1573.86 1811.13 1572.58 1815.17 C 1579.03 1822.24 1639.8 1819.96 1652.57 1819.97 L 1797.04 1819.9 C 1820.97 1819.88 1845.51 1819.6 1869.46 1820.22 C 1885.43 1820.64 1886.31 1830.88 1896 1842.11 L 1896 1876 L 25.5391 1876 C 19.3787 1869.75 2.35099 1848.31 0 1846.53 L 0 1845.47 C 9.72601 1839.22 11.7189 1829.11 21.2639 1820.65 z"/>
<path transform="translate(0,0)" fill="url(#Gradient3)" d="M 264.962 1198.69 C 311.224 1217.73 355.428 1234.31 401.98 1252.15 L 674.983 1357.14 L 839.53 1422.12 C 866.241 1432.91 905.032 1450.44 930.779 1458.9 C 931.819 1478.6 931.197 1503.48 931.189 1523.51 L 931.012 1639.34 L 930.981 1748.62 C 931.032 1769.61 931.718 1794.37 930.779 1815.12 L 542.803 1815.03 C 464.746 1814.3 399.318 1787.32 343.923 1731.55 C 273.477 1660.63 264.825 1587.29 265.219 1492.37 L 265.51 1404.7 C 265.459 1336.45 264.197 1266.77 264.962 1198.69 z"/>
<path transform="translate(0,0)" fill="url(#Gradient2)" d="M 1640.2 1206.19 L 1641.35 1207.34 C 1641.58 1219.44 1641.43 1231.79 1641.27 1243.91 C 1639.85 1348.98 1642.74 1454.33 1641.28 1559.36 C 1640.35 1626.4 1603.99 1697.73 1554.84 1742.82 C 1519.17 1775.65 1475.67 1798.8 1428.51 1810.06 C 1395.68 1817.7 1361.44 1815.84 1327.73 1815.83 L 1221.67 1815.81 L 1078.13 1815.82 C 1052 1815.8 1021.8 1816.39 995.91 1815.26 C 994.592 1814.97 995.322 1815.27 993.934 1813.95 C 992.755 1805.17 993.338 1783.5 993.232 1773.38 L 993.075 1670.68 L 992.786 1532.03 C 992.687 1509.23 991.513 1480.92 992.57 1458.76 C 1001.88 1455.62 1014.52 1449.95 1024.03 1446.1 C 1046.62 1436.88 1069.3 1427.84 1092.04 1418.98 L 1478.1 1268.36 L 1570.38 1232.42 C 1593.34 1223.43 1616.81 1213.85 1640.2 1206.19 z"/>
<path transform="translate(0,0)" fill="rgba(0, 0, 0, 1)" d="M 730.25 0 L 782.228 0 C 792.479 14.1836 818.295 15.9028 833.515 23.2773 C 841.368 27.0821 845.992 31.9598 852.364 37.063 C 872.21 52.9569 879.485 59.3254 889.654 82.8507 C 892.823 89.6214 898.082 97.6839 900.386 104.681 C 903.679 114.675 907.429 135.964 906.482 145.919 C 902.98 178.905 890.672 211.915 873.32 240.173 C 864.016 255.325 852.379 270.116 843.104 285.696 C 837.005 295.94 826.107 303.507 820.427 315.531 C 821.045 319.648 820.714 318.441 823.636 322.086 C 825.484 324.391 827.073 322.485 829.914 320.5 C 849.86 306.56 872.333 295.926 893.624 284.21 L 1004.33 223.155 L 1118.33 159.649 C 1124.36 156.327 1132.65 149.374 1137.64 146.989 C 1147.01 142.51 1169.33 137.162 1178.21 144.55 C 1190.02 154.388 1198.54 178.89 1206.46 192.201 C 1211.84 202.466 1221.93 212.73 1227.02 222.88 C 1252.71 274.093 1284.04 322.027 1312.02 371.903 C 1318.8 384.003 1324.95 406.058 1314.15 417.456 C 1311.63 420.113 1309.54 424.752 1306.68 427.28 C 1285.26 442.171 1261.27 453.912 1238.66 466.948 C 1230.96 471.375 1228.09 473.979 1221.31 479.16 C 1205.89 488.712 1184.38 495.885 1169.56 505.673 C 1145.48 521.583 1121.42 533.581 1095.76 546.681 C 1087.37 550.963 1078.98 558.112 1070.26 562.785 C 1049.08 574.133 1026.75 583.969 1005.83 595.674 L 785.849 719.515 C 775.978 725.082 768.012 733.153 758.061 738.742 L 396.595 938.113 L 251.825 1018.39 C 221.544 1034.96 222.493 1045.98 183.463 1044.34 C 174.61 1038.85 168.478 1033.33 163.362 1024.15 C 141.469 984.884 117.954 946.312 95.5576 907.401 C 80.8548 881.856 67.0218 857.039 51.2561 832.165 C 42.2317 817.927 34.7323 801.378 32.7446 784.609 C 31.6367 774.964 38.698 766.214 45.8037 760.264 C 64.6557 747.069 87.6318 736.596 107.521 725.398 L 242.372 650.717 C 271.81 634.603 306.241 615.518 335.012 597.537 C 337.252 595.74 336.233 588.336 333.712 587.242 C 325.023 583.473 312.799 583.95 303.478 584.057 C 248.174 584.687 179.875 579.054 142.734 532.473 C 132.967 520.223 121.943 508.628 117.52 493.065 C 97.3796 425.179 115.135 351.58 178.062 313.757 C 250.195 268.222 335.301 284.98 407.784 319.34 C 415.392 322.947 424.601 325.137 432.295 328.806 C 462.784 350.435 498.348 363.368 529.896 383.817 C 539.362 389.949 550.126 393.964 558.887 400.596 L 567.883 389.771 C 568.419 369.483 567.122 354.218 564.441 334.14 C 563.518 327.234 568.023 312.382 568.012 304.036 C 567.988 286.955 568.046 269.585 568.604 252.513 C 576.048 178.101 592.615 89.1314 654.51 39.5919 C 663.446 33.4911 674.684 24.8409 684.52 20.7345 C 699.815 14.3483 718.264 12.7084 730.25 0 z"/>
<path transform="translate(0,0)" fill="rgba(140, 117, 218, 1)" d="M 1149.07 210.028 C 1157.95 215.754 1237.09 367.832 1255.75 389.505 C 1226.78 406.89 1191.44 425.653 1161.66 442.24 L 948.935 559.697 C 924.003 573.411 899.122 586.027 874.21 600.083 C 873.848 600.259 872.039 600.626 871.57 600.733 C 865.2 592.835 843.158 554.258 836.907 543.543 C 814.101 503.92 791.054 464.437 767.765 425.095 C 782.201 412.711 844.991 381.062 865.324 370.186 C 928.946 335.35 992.228 299.894 1055.16 263.824 L 1112 231.981 C 1122.37 226.21 1140.01 216.837 1149.07 210.028 z"/>
<path transform="translate(0,0)" fill="rgba(140, 117, 218, 1)" d="M 478.187 587.217 C 489.701 594.869 561.505 741.66 582.188 765.307 C 553.575 779.669 520.664 800.358 492.175 816.296 L 287.135 931.303 C 265.51 943.551 243.578 955.12 222.976 969.057 C 219.05 971.713 215.169 974.445 210.901 976.53 L 209.296 975.413 C 196.413 960.859 185.103 941.976 174.992 925.347 C 161 902.062 147.173 878.679 133.511 855.199 C 124.838 840.536 106.998 813.313 100.896 799.374 C 111.732 790.434 131.096 780.663 143.935 773.778 C 165.391 762.43 186.748 750.897 208.006 739.182 C 297.574 687.657 387.638 636.999 478.187 587.217 z"/>
<path transform="translate(0,0)" fill="url(#Gradient1)" d="M 751.566 65.3537 C 774.756 61.4929 804.036 73.2114 820.868 88.9219 C 835.772 102.868 844.442 122.22 844.93 142.625 C 846.253 207.516 726.067 326.908 680.841 373.5 C 665.071 389.49 648.127 404.276 630.149 417.735 C 628.224 322.986 615.772 188.634 674.814 106.885 C 693.593 80.8838 720.421 69.597 751.566 65.3537 z"/>
<path transform="translate(0,0)" fill="rgba(238, 128, 157, 1)" d="M 268.524 345.385 C 277.134 343.979 293.522 345.176 302.194 346.705 C 377.771 360.033 442.055 405.93 506.598 444.59 C 518.065 451.459 529.353 460.341 539.702 468.752 C 498.455 485.585 464.768 492.98 421.736 502.522 C 365.316 517.718 251.556 541.018 201.605 504.045 C 184.752 491.564 173.618 472.838 170.703 452.07 C 167.607 429.041 177.476 402.517 191.604 384.553 C 211.46 359.304 237.538 349.069 268.524 345.385 z"/>
<path transform="translate(0,0)" fill="rgba(238, 128, 157, 1)" d="M 709.492 457.147 C 717.184 460.024 804.413 613.145 817.361 632.308 C 800.51 643.396 777.259 656.081 759.428 666.288 C 719.546 688.887 679.541 711.268 639.415 733.43 C 637.418 734.728 638.528 734.512 636.109 734.375 C 626.647 719.051 616.851 700.683 607.805 684.744 L 565.318 610.549 C 555.907 593.952 543.395 570.619 532.855 555.328 C 540.433 550.851 547.919 546.165 555.501 541.657 C 605.528 511.913 660.115 487.759 709.492 457.147 z"/>
</g></svg></svg><svg x="310" y="101" width="336" height="139" xmlns="http://www.w3.org/2000/svg" preserveAspectRatio="none"><svg version="1.1" xmlns="http://www.w3.org/2000/svg" style="display: block;" width="336" height="139" viewBox="54.26 26.46 1917.63 793.31" preserveAspectRatio="none"><g id="svg-group-b50d0a81-1b65-4b18-a166-aa63219b8c2f">
<path transform="translate(0,0)" fill="rgba(254, 254, 254, 1)" d="M 343.662 54.4151 C 347.267 53.8376 353.201 54.0858 356.954 53.9365 C 433.094 51.6762 502.413 69.2398 560.922 119.834 C 606.671 159.395 573.314 217.824 522.346 201.329 C 497.099 193.158 476.893 164.899 444.791 153.668 C 308.472 105.976 168.233 194.145 173.987 343.383 C 175.607 462.543 256.723 543.698 377.32 544.122 C 418.649 544.267 480.059 527.81 510.504 496.996 C 510.078 467.959 511.637 437.62 509.472 408.832 C 508.942 401.78 452.213 405.583 444.64 405.019 C 417.962 403.032 377.821 413.234 361.842 384.786 C 358.173 378.253 355.13 361.63 357.383 354.5 C 364.474 315.302 388.394 321.096 419.429 321.268 L 485.154 321.591 C 502.102 321.685 519.05 321.633 535.997 321.436 C 549.448 321.308 574.61 318.933 585.105 327.522 C 602.93 342.11 599.888 366.989 599.898 387.528 L 599.919 443.006 C 599.92 452.219 600.86 526.078 598.376 530.6 C 562.82 595.326 462.892 624.701 394.592 629.53 C 305.176 635.851 211.931 603.811 151.1 537.32 C 55.8169 433.324 54.2583 265.96 140.867 157.223 C 191.891 92.4242 262.903 61.4932 343.662 54.4151 z"/>
<path transform="translate(0,0)" fill="rgba(254, 254, 254, 1)" d="M 1618.61 214.381 C 1656.76 213.045 1655.97 219.687 1671.54 251.709 C 1681.68 272.568 1688.48 292.198 1697.31 313.38 C 1712.74 347.524 1725.73 382.802 1740.91 417.01 C 1751.46 440.791 1762.51 470.94 1776.38 492.854 C 1777.61 490.504 1779.55 487.061 1780.4 484.672 C 1789.71 458.659 1801.29 433.663 1811.77 408.07 L 1880.02 243.302 C 1891.86 215.264 1914.34 207.544 1942.89 218.281 C 1955.32 222.953 1971.89 242.893 1967.55 256.64 C 1964.81 265.329 1959.78 274.956 1956.46 283.924 C 1940.03 327.385 1922.35 370.359 1903.42 412.792 C 1888.26 447.713 1874.1 486.609 1857.85 520.905 C 1848.75 538.116 1844.43 556.709 1836.27 573.715 C 1825.17 596.826 1816.92 619.475 1807.47 643.212 L 1758.94 763.762 C 1753.22 777.703 1743.39 802.225 1728.4 808.858 C 1718.34 813.309 1698.55 811.897 1688.23 807.478 C 1653.42 792.447 1660.71 762.661 1674.1 734.484 C 1693.86 692.894 1708.43 648.664 1726.65 606.608 C 1716.33 588.075 1699.82 541.94 1690.48 519.771 L 1612.59 333.283 C 1602.85 309.845 1590.34 287.091 1584.2 262.232 C 1577.85 236.551 1593.66 217.85 1618.61 214.381 z"/>
<path transform="translate(0,0)" fill="rgba(254, 254, 254, 1)" d="M 1036.59 34.2161 C 1051.87 32.9191 1094.64 37.8192 1107.09 47.4596 C 1114.98 53.5004 1120.04 62.5227 1121.08 72.4078 C 1126.67 121.295 1087.77 123.241 1051.67 120.636 C 981.684 115.584 968.501 153.104 975.734 217.258 C 999.118 218.415 1023.71 216.278 1047.01 218.057 C 1056.83 219.127 1067.54 223.17 1073.33 231.541 C 1088.66 253.707 1080.76 282.234 1060.51 297.564 C 1033.35 301.927 1003.33 300.595 975.503 300.844 C 973.981 309.966 974.309 327.791 974.317 337.276 L 974.4 391.556 L 974.312 586.902 C 971.805 632.875 894.767 631.577 887.038 595.548 C 882.778 575.693 884.911 531.36 884.925 508.403 L 884.996 350.236 C 884.994 334.422 885.67 317.839 883.949 302.165 C 883.561 298.631 876.643 299.544 874.058 299.841 C 853.552 302.229 825.685 298.181 820.571 273.801 C 814.701 245.816 821.481 219.419 854.486 217.956 C 863.186 217.57 882.331 220.252 884.042 209.269 C 886.617 192.744 883.202 175.735 885.781 159.107 C 894.544 94.9923 937.932 50.4574 1001.65 39.2894 C 1013.13 37.2769 1025.39 36.961 1036.59 34.2161 z"/>
<path transform="translate(0,0)" fill="rgba(254, 254, 254, 1)" d="M 1209.18 99.2139 C 1257.99 96.7174 1265.15 117.206 1264.77 160.808 L 1264.42 193.44 C 1264.09 225.599 1267.7 216.533 1292.01 217.723 C 1323.44 219.261 1378.27 206.871 1382.63 251.241 C 1386.02 276.346 1370.76 301.364 1343.15 300.541 C 1320.9 299.878 1289.59 303.519 1267.82 298.587 C 1267.28 300.812 1266.44 304.83 1266.48 307.024 C 1267.82 369.161 1266.49 431.357 1267.38 493.502 C 1267.46 498.91 1268.19 505.886 1270.07 510.967 C 1286.8 556.262 1338.93 529.459 1372.25 541.674 C 1380.15 544.643 1386.5 555.389 1389.05 563.53 C 1393.26 576.935 1391.52 585.642 1385.26 597.904 C 1367.84 623.292 1337.47 624.863 1309.32 624.476 C 1246.46 623.613 1189.57 590.053 1179.52 524.073 C 1176.09 501.52 1177.76 472.262 1177.76 448.737 L 1177.71 338.6 C 1177.77 331.257 1179.56 309.278 1174.78 304.307 C 1168.38 298.721 1154.93 301.717 1147.42 300.983 C 1121.82 298.482 1110.28 284.564 1109.95 260.041 C 1109.39 218.385 1137.66 216.602 1170.21 218.173 L 1175.05 214.334 C 1175.78 199.155 1177.08 184.001 1177.67 168.79 C 1178.1 157.68 1176.74 143.163 1177.96 132.409 C 1178.41 128.185 1179.6 124.075 1181.49 120.271 C 1187.13 109.098 1197.66 102.857 1209.18 99.2139 z"/>
<path transform="translate(0,0)" fill="rgba(254, 254, 254, 1)" d="M 1476.34 41.3455 C 1488.24 40.1461 1501.91 41.7328 1512.25 48.0549 C 1517.67 51.3692 1527.04 62.0829 1527.75 68.2032 C 1530.02 87.8017 1529.3 110.524 1529.32 130.393 L 1529.35 249.459 L 1529.41 469.633 C 1529.43 507.55 1529.69 545.479 1529.15 583.388 C 1528.8 607.767 1516.1 617.842 1493.65 621.802 C 1471.36 623.532 1456.13 619.42 1443.36 600.287 C 1441.73 584.9 1442.65 548.501 1442.64 532.179 L 1442.62 399.56 L 1442.59 189.076 C 1442.55 150.973 1442.28 112.581 1442.76 74.4832 C 1442.84 68.3109 1442.97 62.4139 1446.59 57.4165 C 1454.12 47.0358 1464.66 43.6503 1476.34 41.3455 z"/>
<path transform="translate(0,0)" fill="rgba(254, 254, 254, 1)" d="M 716.332 217.418 C 776.792 216.007 771.739 247.872 771.568 295.704 L 771.45 383.474 L 771.453 514.503 C 771.457 537.223 772.373 561.375 770.835 583.895 C 769.385 605.124 756.2 617.73 736.248 621.795 C 676.502 627.723 681.984 590.479 681.96 547.286 L 681.955 462.843 L 681.908 325.509 C 681.905 301.596 681.665 277.752 682.317 253.85 C 682.882 233.129 696.695 220.545 716.332 217.418 z"/>
<path transform="translate(0,0)" fill="rgba(254, 254, 254, 1)" d="M 717.304 52.1612 C 748.421 47.0571 777.779 68.1611 782.856 99.2833 C 787.933 130.405 766.803 159.745 735.676 164.794 C 704.588 169.837 675.293 148.739 670.223 117.656 C 665.153 86.5725 686.225 57.259 717.304 52.1612 z"/>
</g></svg></svg></svg>